<svg width="1024" height="1024" viewBox="0 0 1024 1024" fill="none" xmlns="http://www.w3.org/2000/svg">
  <defs>
    <filter id="cardShadow" filterUnits="userSpaceOnUse" x="70" y="70" width="884" height="884" color-interpolation-filters="sRGB">
      <feDropShadow dx="0" dy="26" stdDeviation="34" flood-color="#1d1a2a" flood-opacity="0.18"/>
      <feDropShadow dx="0" dy="-6" stdDeviation="10" flood-color="#ffffff" flood-opacity="0.9"/>
    </filter>
    <filter id="markShadow" filterUnits="userSpaceOnUse" x="180" y="190" width="664" height="610" color-interpolation-filters="sRGB">
      <feDropShadow dx="0" dy="28" stdDeviation="34" flood-color="#2856ff" flood-opacity="0.34"/>
    </filter>
    <linearGradient id="blob" x1="278" y1="236" x2="733" y2="742" gradientUnits="userSpaceOnUse">
      <stop stop-color="#c7b8ff"/>
      <stop offset="0.46" stop-color="#4f83ff"/>
      <stop offset="1" stop-color="#2627e8"/>
    </linearGradient>
    <radialGradient id="glow" cx="0" cy="0" r="1" gradientUnits="userSpaceOnUse" gradientTransform="translate(491 312) rotate(88) scale(319 382)">
      <stop stop-color="#9ef1ff" stop-opacity="0.85"/>
      <stop offset="0.52" stop-color="#7a62ff" stop-opacity="0.34"/>
      <stop offset="1" stop-color="#2529ef" stop-opacity="0"/>
    </radialGradient>
  </defs>
  <rect width="1024" height="1024" fill="#ffffff"/>
  <rect x="128" y="128" width="768" height="768" rx="176" fill="#fbfbfd" filter="url(#cardShadow)"/>
  <path filter="url(#markShadow)" d="M520 231c83 0 155 52 181 125 73 12 128 76 128 153 0 85-69 154-154 154H342c-91 0-165-74-165-165 0-79 56-145 130-161 36-63 101-106 178-106h35Z" fill="url(#blob)"/>
  <path d="M520 231c83 0 155 52 181 125 73 12 128 76 128 153 0 85-69 154-154 154H342c-91 0-165-74-165-165 0-79 56-145 130-161 36-63 101-106 178-106h35Z" fill="url(#glow)"/>
  <path d="M379 410l68 87-68 87" stroke="white" stroke-width="44" stroke-linecap="round" stroke-linejoin="round" opacity="0.9"/>
  <path d="M528 581h146" stroke="white" stroke-width="44" stroke-linecap="round" opacity="0.9"/>
</svg>
